<?xml version="1.0" encoding="utf-8"?>
<!-- Generator: Adobe Illustrator 15.0.0, SVG Export Plug-In  -->
<!DOCTYPE svg PUBLIC "-//W3C//DTD SVG 1.1//EN" "http://www.w3.org/Graphics/SVG/1.1/DTD/svg11.dtd" [
	<!ENTITY ns_flows "http://ns.adobe.com/Flows/1.0/">
]>
<svg version="1.1"
	 xmlns="http://www.w3.org/2000/svg" xmlns:xlink="http://www.w3.org/1999/xlink" xmlns:a="http://ns.adobe.com/AdobeSVGViewerExtensions/3.0/"
	 x="0px" y="0px" width="100px" height="100px" viewBox="0 0 100 100" enable-background="new 0 0 100 100" xml:space="preserve">
<defs xmlns="http://www.w3.org/2000/svg">   
	<linearGradient xmlns="http://www.w3.org/2000/svg" id="grad1" x1="0%" y1="0%" x2="100%" y2="0%">
		<stop offset="0%" stop-color="#01c1fb"/>
		<stop offset="100%" stop-color="#1457f2"/>
	</linearGradient>
</defs>
    
<polygon opacity="0.84" fill="#404040" points="72.25,100 0,100 0,27.25 27,0 100,0 100,71.75 "/>

<path xmlns="http://www.w3.org/2000/svg" fill="url('#grad1')" d="M35 15 L37 15 L37 45 L75 45 L75 15 L77 15 L77 75 L75 75 L75 47 L37 47 L37 75 L35 75 Z"/>

<path xmlns="http://www.w3.org/2000/svg" fill="#FFFFFF" d="M25 24 L31 24 L31 53 L65 53 L65 24 L71 24 L71 84 L65 84 L65 59 L31 59 L31 84 L25 84   Z"/>
</svg>
